<?xml version="1.0" standalone="no"?>
<!DOCTYPE svg PUBLIC "-//W3C//DTD SVG 20010904//EN"
 "http://www.w3.org/TR/2001/REC-SVG-20010904/DTD/svg10.dtd">
<svg version="1.0" xmlns="http://www.w3.org/2000/svg"
 width="4937.000000pt" height="5636.000000pt" viewBox="0 0 4937.000000 5636.000000"
 preserveAspectRatio="xMidYMid meet">

<g transform="translate(0.000000,5636.000000) scale(0.100000,-0.100000)"
fill="#000000" stroke="none">
<path d="M24035 55169 c-3816 -102 -7542 -1133 -10885 -3011 -2622 -1473
-4955 -3456 -6849 -5818 -1607 -2005 -2868 -4246 -3735 -6642 -1150 -3178
-1589 -6564 -1290 -9968 191 -2181 697 -4349 1494 -6395 1446 -3715 3829
-7021 6915 -9594 2993 -2496 6539 -4205 10330 -4981 2863 -586 5858 -625 8746
-114 1943 343 3830 931 5644 1759 317 145 1069 520 1375 685 2562 1387 4839
3222 6736 5430 2849 3317 4717 7340 5393 11621 293 1855 361 3780 200 5659
-313 3660 -1484 7166 -3442 10304 -1304 2090 -2972 4003 -4887 5602 -1159 968
-2409 1823 -3730 2552 -3676 2026 -7794 3024 -12015 2911z m1520 -869 c2796
-109 5494 -716 8045 -1810 1024 -439 2040 -967 2980 -1548 3701 -2291 6647
-5550 8532 -9437 1280 -2640 2024 -5518 2188 -8460 31 -570 41 -1516 20 -2065
-123 -3265 -904 -6348 -2336 -9230 -443 -892 -861 -1615 -1419 -2455 -689
-1037 -1400 -1942 -2255 -2870 -250 -271 -965 -986 -1235 -1235 -2130 -1961
-4532 -3467 -7180 -4500 -3408 -1330 -7109 -1808 -10790 -1395 -2869 323
-5659 1194 -8185 2556 -2680 1445 -5060 3433 -6951 5809 -2391 3002 -3968
6533 -4604 10307 -153 904 -240 1718 -297 2773 -18 319 -18 1780 0 2100 54
1004 136 1775 283 2660 549 3320 1846 6477 3794 9235 1919 2718 4407 4973
7311 6628 845 481 1837 960 2734 1319 2588 1036 5249 1572 8095 1632 237 5
996 -4 1270 -14z"/>
<path d="M24140 53573 c-1298 -39 -2537 -182 -3778 -434 -4844 -984 -9225
-3590 -12423 -7389 -2266 -2693 -3840 -5876 -4593 -9290 -678 -3076 -672
-6315 19 -9430 845 -3809 2688 -7306 5365 -10180 342 -367 928 -945 1310
-1291 1748 -1586 3768 -2894 5920 -3836 2326 -1018 4775 -1616 7320 -1787 539
-37 694 -41 1485 -41 792 0 938 4 1485 41 4705 315 9195 2187 12785 5329 612
536 1318 1232 1861 1835 1674 1861 3004 3965 3963 6270 1790 4299 2162 9127
1050 13629 -484 1957 -1243 3844 -2256 5606 -2372 4124 -6058 7397 -10418
9252 -2466 1049 -5026 1615 -7750 1713 -236 9 -1104 11 -1345 3z m1400 -503
c1731 -65 3364 -315 4995 -765 4532 -1248 8566 -3988 11402 -7745 1929 -2556
3239 -5471 3863 -8598 463 -2324 530 -4787 194 -7152 -733 -5160 -3338 -9876
-7344 -13296 -1875 -1600 -4044 -2884 -6340 -3751 -1226 -463 -2501 -816
-3755 -1038 -143 -25 -268 -47 -277 -49 -17 -4 -18 354 -17 7412 l0 7417 3965
3550 c2181 1953 3974 3560 3986 3573 l21 22 -1824 0 -1824 0 -3239 -2325
-3239 -2325 -1334 0 -1334 0 -3156 2325 -3155 2325 -1912 0 -1911 -1 26 -22
c15 -12 1809 -1619 3988 -3571 l3961 -3549 0 -7414 c0 -7223 0 -7413 -19
-7413 -27 0 -384 64 -646 116 -1860 369 -3661 985 -5365 1836 -3003 1499
-5645 3708 -7655 6403 -3059 4100 -4539 9081 -4210 14165 164 2520 764 4949
1790 7245 1256 2810 3139 5345 5481 7376 3290 2854 7334 4631 11659 5123 564
64 1137 106 1785 129 212 8 1209 6 1440 -3z m230 -27485 l0 -1575 -995 0 -995
0 0 1575 0 1575 995 0 995 0 0 -1575z m0 -8789 l0 -6383 -77 -7 c-217 -17
-937 -26 -1347 -16 -237 5 -461 13 -498 16 l-68 7 0 6383 0 6384 995 0 995 0
0 -6384z"/>
<path d="M5000 38545 l0 -415 19775 0 19775 0 0 415 0 415 -19775 0 -19775 0
0 -415z"/>
<path d="M5000 35305 l0 -1825 19775 0 19775 0 0 1825 0 1825 -19775 0 -19775
0 0 -1825z"/>
<path d="M6304 13859 l-379 -380 280 -277 c302 -299 566 -544 877 -815 108
-95 197 -174 197 -177 0 -3 -677 -786 -1504 -1740 -828 -954 -1505 -1737
-1504 -1740 1 -5 11 -15 368 -319 238 -202 555 -459 844 -684 l189 -147 1401
1823 c770 1002 1401 1823 1403 1825 1 2 51 -34 111 -81 187 -145 570 -428 763
-564 234 -164 616 -423 625 -423 12 0 596 893 588 900 -4 4 -118 85 -253 180
-1199 849 -2395 1833 -3481 2861 l-145 138 -380 -380z"/>
<path d="M42070 14017 c-309 -305 -623 -597 -953 -884 l-48 -42 60 -228 c86
-328 152 -596 211 -853 28 -124 87 -382 131 -575 44 -192 98 -429 120 -525 22
-96 58 -242 80 -324 28 -102 37 -152 30 -159 -7 -7 -81 23 -238 98 -529 250
-1798 875 -2068 1018 l-160 85 -245 -175 c-270 -192 -703 -483 -963 -646
l-169 -106 130 -65 c866 -434 2084 -941 3366 -1402 l189 -67 250 -336 c138
-185 446 -599 685 -921 239 -322 440 -591 447 -598 9 -10 55 20 226 149 371
280 558 428 936 742 224 185 251 211 240 227 -6 9 -350 419 -762 911 l-751
894 -27 330 c-93 1108 -212 2091 -357 2950 -44 262 -128 717 -133 721 -1 2
-103 -97 -227 -219z"/>
<path d="M11885 9783 c-38 -2 -133 -10 -210 -19 -798 -88 -1508 -468 -2017
-1080 -837 -1008 -885 -2285 -125 -3308 372 -500 866 -897 1512 -1215 1118
-552 2245 -641 3117 -247 408 185 777 501 1033 886 272 407 453 923 505 1434
16 151 7 572 -14 711 -70 465 -235 887 -486 1246 -329 471 -774 842 -1367
1138 -569 285 -1038 418 -1588 451 -163 9 -206 10 -360 3z m987 -1172 c228
-49 487 -168 673 -309 288 -220 506 -574 584 -950 141 -685 -148 -1571 -677
-2074 -582 -554 -1366 -592 -2112 -104 -297 195 -509 442 -623 726 -184 459
-144 965 117 1495 142 287 307 516 517 720 319 308 623 458 1054 519 80 11
373 -3 467 -23z"/>
<path d="M36165 9728 c-360 -194 -847 -432 -1308 -638 l-242 -108 2 -89 c1
-48 13 -270 27 -493 108 -1697 133 -3391 75 -5123 -7 -191 -10 -349 -8 -352 6
-5 596 206 878 314 210 82 790 317 797 324 5 4 -21 589 -36 837 -26 415 -40
638 -45 671 l-5 35 133 59 c538 236 1016 464 1484 708 155 81 287 147 293 147
6 0 110 -84 233 -188 258 -218 582 -484 817 -670 l165 -131 75 41 c152 83 650
368 815 467 290 175 735 455 733 462 -2 4 -138 103 -303 221 -1472 1049 -2844
2144 -4177 3330 -147 131 -273 237 -280 237 -7 -1 -62 -28 -123 -61z m-191
-1391 c187 -222 390 -439 518 -558 62 -57 239 -225 393 -374 290 -281 414
-399 573 -547 l93 -86 -243 -126 c-341 -175 -1164 -564 -1173 -554 -2 2 -13
120 -25 263 -73 881 -118 1230 -236 1826 -30 152 -54 283 -54 292 0 36 30 10
154 -136z"/>
<path d="M32940 8319 c-254 -93 -655 -227 -940 -314 -157 -48 -286 -88 -288
-90 -1 -1 4 -89 13 -196 41 -537 75 -1143 100 -1769 8 -212 24 -549 35 -750
11 -201 24 -471 30 -600 18 -405 59 -976 75 -1047 4 -17 1 -23 -12 -23 -12 0
-24 16 -37 48 -102 250 -317 702 -860 1800 -235 475 -444 900 -465 945 -21 45
-82 174 -136 287 -53 113 -164 351 -247 530 -82 179 -153 328 -157 333 -4 4
-142 -22 -307 -57 -319 -69 -601 -123 -939 -182 -115 -19 -212 -40 -215 -45
-4 -5 -12 -102 -19 -216 -40 -664 -83 -1172 -197 -2302 -95 -953 -133 -1370
-155 -1714 -10 -154 -15 -187 -27 -185 -15 3 -208 574 -775 2283 -268 806
-376 1143 -531 1659 -41 136 -77 250 -79 252 -2 2 -136 -7 -298 -20 -368 -31
-550 -42 -904 -56 -154 -6 -283 -12 -287 -13 -3 -1 5 -38 19 -82 564 -1818
1170 -3520 1843 -5181 l122 -302 36 4 c21 2 177 18 347 34 372 37 703 77 1080
131 407 58 404 57 410 83 6 29 77 559 120 901 48 385 87 745 134 1235 80 828
83 874 90 1564 4 417 9 590 17 593 7 2 33 -60 64 -149 150 -439 318 -877 445
-1162 86 -194 350 -753 582 -1231 196 -406 667 -1331 688 -1354 11 -11 60 -2
301 54 395 92 700 170 1084 277 179 50 351 98 383 106 l57 16 0 41 c0 22 5
159 10 305 43 1170 43 2858 0 4090 -19 527 -66 1510 -73 1516 -1 1 -63 -20
-137 -47z"/>
<path d="M16521 5187 c-442 -1491 -806 -2717 -808 -2723 -2 -7 112 -44 299
-97 1322 -375 2657 -661 4002 -857 192 -27 350 -49 351 -48 1 2 32 233 69 513
37 281 70 519 73 531 4 20 -6 22 -229 53 -729 103 -1664 274 -2388 439 -249
56 -255 58 -252 81 2 13 240 1021 528 2239 288 1219 523 2217 521 2218 -1 1
-166 43 -367 92 -280 70 -828 219 -980 267 -12 4 -165 -502 -819 -2708z"/>
<path d="M21940 6984 c0 -3 -128 -1267 -285 -2808 -157 -1542 -285 -2810 -285
-2818 0 -17 46 -23 520 -62 916 -77 1626 -106 2603 -106 716 0 1584 23 1604
43 6 7 -45 1058 -52 1065 -2 2 -106 -1 -232 -7 -479 -23 -1099 -33 -1603 -27
-426 5 -1069 23 -1077 30 -1 1 45 1034 103 2295 57 1262 103 2295 101 2297 -2
2 -129 11 -283 19 -315 17 -574 37 -874 65 -224 22 -240 23 -240 14z"/>
</g>
</svg>
